<svg width="40" height="40" viewBox="0 0 40 40" fill="none" xmlns="http://www.w3.org/2000/svg">
<g clip-path="url(#clip0_92_7)">
<path d="M33.3997 21.2102C33.4688 27.2521 39.9182 29.2626 39.9896 29.2883C39.9349 29.43 38.959 32.1534 36.5918 34.9665C34.5454 37.3986 32.4213 39.8217 29.0754 39.8719C25.7881 39.9211 24.7308 38.2867 20.9722 38.2867C17.2146 38.2867 16.0401 39.8217 12.928 39.9211C9.69842 40.0206 7.23909 37.2913 5.1758 34.8681C0.95926 29.9115 -2.26296 20.8617 2.06368 14.753C4.21302 11.7194 8.05429 9.79848 12.2233 9.74921C15.3947 9.70006 18.3881 11.4841 20.3267 11.4841C22.2642 11.4841 25.9018 9.33867 29.7259 9.65372C31.3266 9.70794 35.8205 10.1794 38.706 13.6138C38.4733 13.731 33.344 16.1591 33.3997 21.2103M27.2213 6.37448C28.936 4.68686 30.0899 2.33765 29.7751 0C27.3036 0.0807619 24.3151 1.33917 22.5423 3.02578C20.9536 4.51949 19.5623 6.9101 19.9377 9.2014C22.6925 9.37473 25.5065 8.06311 27.2213 6.37448Z" fill="black"/>
</g>
<defs>
<clipPath id="clip0_92_7">
<rect width="40" height="40" fill="white"/>
</clipPath>
</defs>
</svg>
