<svg width="40" height="40" viewBox="0 0 40 40" fill="none" xmlns="http://www.w3.org/2000/svg">
<path d="M36.3424 16.7358H34.9999V16.6666H19.9999V23.3333H29.4191C28.0449 27.2141 24.3524 30 19.9999 30C14.4774 30 9.99992 25.5225 9.99992 20C9.99992 14.4775 14.4774 9.99998 19.9999 9.99998C22.5491 9.99998 24.8683 10.9616 26.6341 12.5325L31.3483 7.81831C28.3716 5.04415 24.3899 3.33331 19.9999 3.33331C10.7958 3.33331 3.33325 10.7958 3.33325 20C3.33325 29.2041 10.7958 36.6666 19.9999 36.6666C29.2041 36.6666 36.6666 29.2041 36.6666 20C36.6666 18.8825 36.5516 17.7916 36.3424 16.7358Z" fill="#FFC107"/>
<path d="M5.25488 12.2425L10.7307 16.2583C12.2124 12.59 15.8007 9.99998 19.9999 9.99998C22.5491 9.99998 24.8682 10.9616 26.6341 12.5325L31.3482 7.81831C28.3716 5.04415 24.3899 3.33331 19.9999 3.33331C13.5982 3.33331 8.04655 6.94748 5.25488 12.2425Z" fill="#FF3D00"/>
<path d="M20.0001 36.6666C24.3051 36.6666 28.2168 35.0191 31.1743 32.34L26.0159 27.975C24.2867 29.2908 22.1731 30.0023 20.0001 30C15.6651 30 11.9843 27.2358 10.5976 23.3783L5.1626 27.5658C7.92093 32.9633 13.5226 36.6666 20.0001 36.6666Z" fill="#4CAF50"/>
<path d="M36.3425 16.7358H35V16.6666H20V23.3333H29.4192C28.7618 25.1803 27.5778 26.7943 26.0133 27.9758L26.0158 27.9741L31.1742 32.3391C30.8092 32.6708 36.6667 28.3333 36.6667 20C36.6667 18.8825 36.5517 17.7916 36.3425 16.7358Z" fill="#1976D2"/>
</svg>
